<?xml version="1.0" encoding="UTF-8" standalone="no"?>
<!-- Created with Inkscape (http://www.inkscape.org/) -->

<svg
   width="200mm"
   height="200mm"
   viewBox="0 0 200 200"
   version="1.1"
   id="svg8103"
   inkscape:version="1.2.2 (b0a8486541, 2022-12-01)"
   sodipodi:docname="emulsion.svg"
   xmlns:inkscape="http://www.inkscape.org/namespaces/inkscape"
   xmlns:sodipodi="http://sodipodi.sourceforge.net/DTD/sodipodi-0.dtd"
   xmlns="http://www.w3.org/2000/svg"
   xmlns:svg="http://www.w3.org/2000/svg">
  <sodipodi:namedview
     id="namedview8105"
     pagecolor="#ffffff"
     bordercolor="#000000"
     borderopacity="0.25"
     inkscape:showpageshadow="2"
     inkscape:pageopacity="0.0"
     inkscape:pagecheckerboard="0"
     inkscape:deskcolor="#d1d1d1"
     inkscape:document-units="mm"
     showgrid="true"
     inkscape:zoom="0.77593294"
     inkscape:cx="272.5751"
     inkscape:cy="434.96027"
     inkscape:window-width="1238"
     inkscape:window-height="1036"
     inkscape:window-x="0"
     inkscape:window-y="20"
     inkscape:window-maximized="1"
     inkscape:current-layer="layer3">
    <inkscape:grid
       type="xygrid"
       id="grid9107" />
  </sodipodi:namedview>
  <defs
     id="defs8100" />
  <g
     inkscape:groupmode="layer"
     id="layer4"
     inkscape:label="U"
     style="display:inline">
    <g
       id="g8647"
       transform="translate(-7.8155903,-48.649972)">
      <path
         style="fill:#e34f3d;fill-opacity:1;stroke:none;stroke-width:2.1;stroke-linecap:round"
         d="m 109.11032,118.59577 -22.601574,18.81592 1.270356,72.54951 21.197638,32.74175 z"
         id="path5009"
         sodipodi:nodetypes="ccccc" />
      <path
         style="fill:#ce2f11;fill-opacity:1;stroke:none;stroke-width:2.1;stroke-linecap:round"
         d="m 107.07754,102.98672 1.73064,15.66727 20.06032,-8.22717 z"
         id="path5617"
         sodipodi:nodetypes="cccc" />
      <path
         style="fill:#dd432d;fill-opacity:1;stroke:none;stroke-width:2.1;stroke-linecap:round"
         d="m 198.20846,83.731833 -4.82461,94.259717 -16.82792,30.64026 -67.70453,34.05439 -0.0402,-124.12744 20.10815,-8.2218 -1.98345,99.83953 49.91119,-25.06987 4.63815,-94.32286 z"
         id="path6156"
         sodipodi:nodetypes="cccccccccc" />
      <path
         style="fill:#e4523f;fill-opacity:1;stroke:none;stroke-width:2.1;stroke-linecap:round"
         d="m 182.06606,90.499828 -22.58042,18.152742 -2.68123,69.36534 20.28839,6.98622 z"
         id="path6695"
         sodipodi:nodetypes="ccccc" />
      <path
         style="fill:#cf3011;fill-opacity:1;stroke:none;stroke-width:2.1;stroke-linecap:round"
         d="m 127.26868,190.77366 -0.37405,19.51322 50.47683,-25.37787 -20.79857,-7.03874 z"
         id="path6958"
         sodipodi:nodetypes="ccccc" />
    </g>
  </g>
  <g
     inkscape:groupmode="layer"
     id="layer3"
     inkscape:label="M"
     style="display:inline">
    <g
       id="g8618"
       transform="translate(-7.8155903,-48.649972)"
       style="display:inline">
      <path
         style="fill:#81cd6c;fill-opacity:1;stroke:none;stroke-width:2.1;stroke-linecap:round"
         d="m 86.536973,110.60903 v 27.2232 l 22.332657,-19.19295 z"
         id="path3161"
         sodipodi:nodetypes="cccc" />
      <g
         id="g8612"
         style="display:inline">
        <path
           style="fill:#60bb45;fill-opacity:1;stroke:none;stroke-width:2.1;stroke-linecap:round"
           d="M 14.272375,85.514051 108.82718,118.63425 107.1337,102.96293 70.439582,90.783933 121.63223,72.302293 182.23411,90.521262 198.14373,83.79784 102.37078,56.344223 85.640822,61.713313 v 11.04829 l -16.49883,5.92376 -36.44496,0.0348 z"
           id="path3700"
           sodipodi:nodetypes="ccccccccccccc" />
      </g>
      <path
         style="fill:#76c85f;fill-opacity:1;stroke:none;stroke-width:2.1;stroke-linecap:round"
         d="M 182.17987,90.445364 121.68934,72.279942 70.389693,90.824563 107.13102,102.97733 121.78471,97.269993 159.60478,108.62499 Z"
         id="path4101"
         sodipodi:nodetypes="ccccccc" />
    </g>
  </g>
  <g
     inkscape:groupmode="layer"
     id="layer2"
     inkscape:label="E"
     style="display:inline">
    <path
       style="fill:#365dd2;fill-opacity:1;stroke:none;stroke-width:2.1;stroke-linecap:round"
       d="M 101.12468,193.92354 25.924032,160.22329 8.6138517,130.57692 6.5458317,36.798804 78.728787,62.076538 v 27.38361 l -52.811428,-20.56083 -0.027,21.8521 29.009033,11.795092 -0.219859,23.67121 -28.723631,-11.02739 0.372,22.58846 53.718779,23.44038 z"
       id="path418"
       sodipodi:nodetypes="cccccccccccccc" />
    <path
       style="fill:#1147bd;fill-opacity:1;stroke:none;stroke-width:2.1;stroke-linecap:round"
       d="m 26.683501,138.01818 17.057779,-7.35826 36.065872,14.23173 0.162451,16.36056 z"
       id="path1289"
       sodipodi:nodetypes="ccccc" />
    <path
       style="fill:#1147bd;fill-opacity:1;stroke:none;stroke-width:2.1;stroke-linecap:round"
       d="M 25.88899,90.785178 54.727637,102.55353 72.408602,95.311438 43.515272,84.053098 Z"
       id="path2035"
       sodipodi:nodetypes="ccccc" />
    <path
       style="fill:#2455cc;fill-opacity:1;stroke:none;stroke-width:2.1;stroke-linecap:round"
       d="m 54.628612,126.2132 -0.0796,-23.66578 17.76734,-7.240532 v 23.328882 z"
       id="path2382"
       sodipodi:nodetypes="ccccc" />
    <path
       style="fill:#2455cc;fill-opacity:1;stroke:none;stroke-width:2.1;stroke-linecap:round"
       d="m 25.809876,68.746028 17.978636,7.05401 v 8.31467 l -17.984076,6.75667 z"
       id="path2507"
       sodipodi:nodetypes="ccccc" />
    <path
       style="fill:#2455cc;fill-opacity:1;stroke:none;stroke-width:2.1;stroke-linecap:round"
       d="m 25.864681,115.08037 17.765151,6.81175 0.0143,8.87917 -17.442131,7.61388 z"
       id="path2716"
       sodipodi:nodetypes="ccccc" />
  </g>
</svg>
